<?xml version="1.0" encoding="utf-8"?>
<!-- Generator: Adobe Illustrator 24.1.2, SVG Export Plug-In . SVG Version: 6.00 Build 0)  -->
<svg version="1.1" id="Camada_1" xmlns="http://www.w3.org/2000/svg" xmlns:xlink="http://www.w3.org/1999/xlink" x="0px" y="0px"
	 viewBox="0 0 376.7 55.5" style="enable-background:new 0 0 376.7 55.5;" xml:space="preserve">
<style type="text/css">
	.st0{fill:#FFFFFF;}
	.st1{fill:#AA2527;}
</style>
<g id="Camada_1_1_">
	<g id="_x3C_Group_x3E__2_">
		<g>
			<g>
				<path class="st0" d="M75.3,46.1c-1.2,0.5-2.4,1-3.4,1.5s-2.3,0.9-4,1.4c-1.4,0.4-2.9,0.8-4.5,1.1s-3.4,0.4-5.3,0.4
					c-3.7,0-7-0.5-10-1.5s-5.6-2.5-7.8-4.7c-2.2-2.1-3.9-4.7-5.1-7.9c-1.2-3.2-1.8-6.9-1.8-11.1c0-4,0.6-7.6,1.8-10.7
					c1.2-3.2,2.9-5.8,5.1-8c2.2-2.1,4.7-3.7,7.8-4.8s6.4-1.7,10.1-1.7c2.7,0,5.4,0.3,8.1,1c2.7,0.6,5.7,1.7,9,3.3v7.7h-0.5
					c-2.8-2.2-5.5-3.9-8.3-4.9c-2.7-1-5.7-1.5-8.8-1.5c-2.6,0-4.9,0.4-6.9,1.2s-3.9,2-5.5,3.7c-1.6,1.6-2.8,3.7-3.7,6.2
					s-1.3,5.4-1.3,8.6c0,3.4,0.5,6.4,1.5,8.8c1,2.4,2.2,4.5,3.7,6c1.6,1.6,3.4,2.8,5.5,3.6s4.3,1.2,6.7,1.2c3.2,0,6.3-0.5,9.1-1.6
					s5.5-2.7,7.9-4.8h0.5C75.3,38.4,75.3,46.1,75.3,46.1z"/>
				<path class="st0" d="M107.8,31.4c0-4.7-1-8.2-2.9-10.5s-4.6-3.4-8-3.4c-3.5,0-6.2,1.2-8.1,3.4c-1.9,2.3-2.9,5.8-2.9,10.5
					c0,4.6,1,8,2.9,10.4s4.6,3.5,8,3.5s6.1-1.2,8-3.5C106.8,39.4,107.8,35.9,107.8,31.4 M114.4,31.4c0,5.9-1.6,10.6-4.8,14.1
					c-3.2,3.4-7.4,5.2-12.7,5.2c-5.3,0-9.6-1.7-12.8-5.2c-3.2-3.4-4.7-8.1-4.7-14.1s1.6-10.6,4.7-14.1c3.2-3.4,7.4-5.2,12.8-5.2
					c5.3,0,9.6,1.7,12.7,5.2C112.8,20.8,114.4,25.4,114.4,31.4"/>
				<path class="st0" d="M151,49.6h-6.4V28.8c0-1.7-0.1-3.2-0.3-4.7s-0.6-2.6-1.1-3.4c-0.6-0.9-1.4-1.6-2.5-2.1
					c-1.1-0.4-2.4-0.7-4.1-0.7c-1.7,0-3.6,0.4-5.5,1.2s-3.7,1.9-5.5,3.2v27.3h-6.4V13.1h6.4v4.1c2-1.6,4.1-2.8,6.2-3.7
					c2.1-0.9,4.3-1.3,6.5-1.3c4.1,0,7.2,1.2,9.4,3.6c2.2,2.4,3.2,5.8,3.2,10.3L151,49.6L151,49.6z"/>
				<path class="st0" d="M180.7,49.3c-1.2,0.3-2.5,0.6-3.9,0.7c-1.4,0.2-2.7,0.3-3.8,0.3c-3.9,0-6.8-1-8.8-3s-3-5.2-3-9.6V18.3h-4.3
					v-5.2h4.3V2.6h6.4v10.5h13.2v5.2h-13.2v16.6c0,1.9,0,3.4,0.1,4.5s0.4,2.1,0.9,3s1.2,1.5,2.1,1.9c0.9,0.4,2.2,0.6,4,0.6
					c1,0,2.1-0.1,3.3-0.4c1.1-0.3,1.9-0.5,2.4-0.7h0.4L180.7,49.3L180.7,49.3z"/>
				<path class="st0" d="M209.8,19.9h-0.3c-0.9-0.2-1.9-0.4-2.8-0.5c-0.9-0.1-2-0.1-3.2-0.1c-2,0-3.9,0.4-5.7,1.3
					c-1.8,0.8-3.6,1.9-5.3,3.2v25.8h-6.4V13.2h6.4v5.4c2.5-2,4.8-3.4,6.7-4.2s3.9-1.2,5.9-1.2c1.1,0,1.9,0,2.4,0.1s1.2,0.2,2.2,0.3
					L209.8,19.9L209.8,19.9z"/>
				<path class="st0" d="M240.7,31.4c0-4.7-1-8.2-2.9-10.5s-4.6-3.4-8-3.4c-3.5,0-6.1,1.2-8.1,3.4c-1.9,2.3-2.9,5.8-2.9,10.5
					c0,4.6,1,8,2.9,10.4s4.6,3.5,8.1,3.5c3.4,0,6.1-1.2,8-3.5S240.7,35.9,240.7,31.4 M247.3,31.4c0,5.9-1.6,10.6-4.8,14.1
					c-3.2,3.4-7.4,5.2-12.7,5.2c-5.4,0-9.6-1.7-12.8-5.2c-3.1-3.4-4.7-8.1-4.7-14.1s1.6-10.6,4.7-14.1c3.2-3.4,7.4-5.2,12.8-5.2
					c5.3,0,9.6,1.7,12.7,5.2C245.7,20.8,247.3,25.4,247.3,31.4"/>
				<rect x="252.2" y="0.2" class="st0" width="6.4" height="49.5"/>
			</g>
			<g>
				<path class="st1" d="M312.9,43.2h-5.3V7.6h5.3c3,0,5.7,0.2,7.9,0.6c2.1,0.4,4.2,1.1,6.1,2.2c2.6,1.4,4.5,3.3,5.8,5.8
					s2,5.6,2,9.2c0,3.6-0.6,6.7-1.8,9.1c-1.2,2.4-3,4.3-5.3,5.7c-1.9,1.2-4,2-6.3,2.4C318.8,42.9,316,43.2,312.9,43.2 M340.5,12.7
					c-2-3.6-4.8-6.5-8.4-8.6c-2.1-1.2-4.7-2.2-7.7-3c-3-0.7-7-1.1-12-1.1h-13.6v50.6h13.7c4.7,0,8.5-0.3,11.4-0.9
					c2.9-0.6,5.6-1.7,8-3.1c3.5-2.1,6.3-5,8.3-8.7c2.1-3.7,3.1-7.9,3.1-12.4C343.5,20.4,342.5,16.3,340.5,12.7"/>
				<g>
					<rect x="284.4" y="14.4" class="st1" width="8.3" height="36"/>
					<path class="st1" d="M293.6,5.2c0,2.6-2.2,4.8-5,4.8s-5-2.2-5-4.8s2.2-4.8,5-4.8S293.6,2.6,293.6,5.2"/>
				</g>
			</g>
		</g>
	</g>
</g>
</svg>
